<svg id="Layer_1" data-name="Layer 1" xmlns="http://www.w3.org/2000/svg" viewBox="0 0 377.97 377.97"><defs><style>.cls-1{fill:#fd7e00;stroke:#fff;stroke-miterlimit:10;stroke-width:1.32px;}.cls-2{fill:#fdfdff;}</style></defs><title>logo_svg</title><circle class="cls-1" cx="188.98" cy="188.98" r="188.32"/><path class="cls-2" d="M96.39,165c-4.21,14.9-24.51,96.87-35.41,142.4H130.1L113.33,235.9C104.62,198.76,98.36,172.71,96.39,165Z" transform="translate(-0.68 -0.68)"/><path class="cls-2" d="M197.87,190.16C188.33,148.42,172.67,79.9,171,72.39c-2.34-.07-12.4-.07-26.76,0l-26.76.22-4.82,21.73c-2.91,13.1-5,23.14-5,24,.14,1.46,9.26,40.25,22.61,95.56,18.14,75.19,21.65,89.73,21.54,93.45h72.86Z" transform="translate(-0.68 -0.68)"/><path class="cls-2" d="M262.27,72.21,209.16,72l-5,22c-3,13.09-5,22.49-5.08,23.06.14,1,10.18,44,22.38,95.9l22.2,94.42h74.73Z" transform="translate(-0.68 -0.68)"/></svg>